PathFileType	4	(X/Y/Z)	Patient4_TMGait_0pt5_02_left_26.trc.trc
DataRate	CameraRate	NumFrames	NumMarkers	Units	OrigDataRate	OrigDataStartFrame	OrigNumFrames
78.212290502793	78.212290502793	4	33	mm	78.212290502793	71	       141
Frame#	Time	Sacral			L.Shoulder			Chest			R.Shoulder			Neck			R.ASIS			L.ASIS			R.Thigh.Superior			R.Thigh.Lateral			R.Thigh.Inferior			R.Patella			L.Thigh.Superior			L.Thigh.Lateral			L.Thigh.Inferior			L.Patella			L.Shank.Superior			L.Shank.Lateral			L.Shank.Inferior			R.Shank.Superior			R.Shank.Lateral			R.Shank.Inferior			R.Heel			R.Midfoot.Superior			R.Midfoot.Lateral			R.Toe			L.Heel			L.Midfoot.Lateral			L.Midfoot.Superior			L.Toe			L.Elbow			L.Wrist			R.Elbow			R.Wrist			
		X1	Y1	Z1	X2	Y2	Z2	X3	Y3	Z3	X4	Y4	Z4	X5	Y5	Z5	X6	Y6	Z6	X7	Y7	Z7	X8	Y8	Z8	X9	Y9	Z9	X10	Y10	Z10	X11	Y11	Z11	X12	Y12	Z12	X13	Y13	Z13	X14	Y14	Z14	X15	Y15	Z15	X16	Y16	Z16	X17	Y17	Z17	X18	Y18	Z18	X19	Y19	Z19	X20	Y20	Z20	X21	Y21	Z21	X22	Y22	Z22	X23	Y23	Z23	X24	Y24	Z24	X25	Y25	Z25	X26	Y26	Z26	X27	Y27	Z27	X28	Y28	Z28	X29	Y29	Z29	X30	Y30	Z30	X31	Y31	Z31	X32	Y32	Z32	X33	Y33	Z33	

71	34.105000000000	582.230482050860	1010.838404450005	428.748148508203	786.242950731023	1425.275193833279	242.756367869803	873.639079290400	1359.760189455536	414.459083488907	778.337655270202	1445.692476040209	577.535417898676	773.231940157145	1492.536972276343	390.888792963137	797.962402403516	942.356639658422	560.804216172495	806.205399062743	958.535127438281	284.720901761500	865.400368572557	761.356717523769	536.841330490481	810.821805844312	643.946148749795	608.588450356192	898.035327426933	599.696253632887	529.738868424703	927.613480967200	517.926139919446	545.586694789317	807.710336076768	734.614720260909	313.970182755427	694.385261564273	638.720057407120	251.007870878002	756.639045862019	546.725542374990	315.128632778699	743.881641905108	480.836327803490	324.610852133877	713.694552496631	414.868826522852	317.335607604969	617.598364521423	305.355891827213	267.477276042132	662.622112716443	192.702728867351	341.500931975824	912.631128567142	433.038762713202	555.389332814511	862.007885592025	318.740811133380	618.269127868060	932.808395731491	234.237185608768	566.605211032798	843.088061434068	45.778059981255	537.390134322080	1004.590722674291	123.862411093877	578.489257398398	927.059144870190	45.578885023323	611.979905299338	1128.947644394720	88.303185172201	606.299010479084	528.617466628064	39.533113501255	387.432239738129	601.862185938837	34.777698896516	306.415365471946	685.717162721690	95.415535958186	331.265931354755	813.512633241493	42.213392080581	303.442089989304	813.951760267516	1086.050331585527	97.258150510793	1046.552639213139	969.213528914898	93.604849910586	637.004812360541	1143.453620947585	713.500340982252	628.909359495604	885.309530775195	752.720114006576	
72	34.117785714286	583.588785940892	1009.689440686364	430.493500739178	787.172677563690	1424.533557816846	245.269951855900	874.614753217904	1358.707509826473	416.830307805816	779.308844603457	1444.359417857885	580.047350548329	774.091371893183	1491.485601942747	393.502653880047	799.265356175759	940.992939637916	562.605759558577	807.466470073211	957.468784028544	286.438156683609	865.255370568089	758.845404336134	538.934572437125	808.881752763238	641.585466993552	609.751986557983	896.234287792775	597.256836732886	531.110824206708	925.128082999271	516.623004710797	546.143875741406	807.042871363040	733.172713270452	315.664931320737	692.900144723440	638.282444780516	252.156741662710	753.912865486176	545.670796036594	316.423144998769	740.817474885699	479.715334227226	325.629963304752	709.883708906556	414.091311653145	318.285417770723	612.923716753729	305.417000787869	268.178035011716	657.011693295216	192.252626900337	341.917165762155	911.786318984175	431.732294621495	555.776501372801	862.893162723886	316.113616848215	617.566952869898	936.001515886423	233.278011521341	566.039893001977	849.913196418650	43.963634174239	535.361839267911	1010.463049341174	122.922269324755	577.856294783328	933.521286998328	44.321466611286	610.325773670189	1135.072640478737	88.517127628155	605.592296445698	522.166080185834	39.380862016910	387.511740568289	595.393519598082	34.747961842094	306.491214175921	679.225592696686	95.360803048971	331.440706806466	807.032285143436	42.152225826731	303.463897607074	814.112748280379	1085.423420997565	99.547218193244	1046.810291796265	968.885870212168	96.304887803705	635.413793622630	1143.227422046493	714.839767272070	624.948530094768	885.069691766639	753.711750258088	
73	34.130571428571	585.133971522401	1008.362151611371	432.404354589139	788.018618874087	1423.767014338822	248.030046927464	875.568955328127	1357.645130062449	419.419781154679	780.205147348896	1442.872918627730	582.826606020331	774.859516606175	1490.367041546580	396.387483808822	800.814759876936	939.536210765932	564.549989906404	808.916065381932	956.321716681644	288.325761005152	865.716102487773	756.554788147504	541.078744195281	807.636369452035	639.273730048387	610.733136637819	895.251845780888	595.111438852358	532.407824664138	923.298743253087	515.203484580064	546.675547704223	806.774592436617	731.643386146519	317.447277000734	691.880551340399	637.690496800922	253.470918147395	751.720558679112	544.487755047308	317.868750732502	738.325376379061	478.379723758324	326.830455696904	706.559988407371	413.082930559611	319.385724638273	608.577597556545	305.389107835763	269.001973579170	651.532977721246	191.640668854559	342.418189185103	911.023602571980	430.056736902718	556.027782998706	862.869515996744	313.546058562699	616.589555515125	937.533220432656	231.867585333321	565.244428300138	853.440354462092	42.757418784356	533.100403079176	1013.489464161793	120.813625824229	577.060138128316	936.595231913059	43.109842580820	608.507387302675	1138.112160621061	86.879309993272	604.745978584620	515.691259657870	39.099101527613	387.605389259363	588.920466335795	34.640035052668	306.581822165283	672.714424794337	95.272613765418	331.651350905280	800.579373120514	42.083893892062	303.482098064244	813.807087538488	1084.743836087127	102.006582424649	1046.344613691152	967.916464748725	99.118901761696	634.523067468145	1142.369868183120	716.310336127216	622.231934892716	884.143114016018	754.525813447608	
74	34.143357142857	586.849396008842	1006.874454710252	434.468639523013	788.788819828278	1422.982341257808	251.037413158291	876.504524546149	1356.583788047145	422.234993258063	781.018437326406	1441.241800962702	585.877025786256	775.545382446331	1489.196546063276	399.543700158220	802.612181258113	938.011007591734	566.625045655685	810.536766578510	955.115838121107	290.380447775848	866.826807930366	754.512922248602	543.221404801894	807.140100878575	637.060018287307	611.520058620962	895.122384922307	593.283976076554	533.598474414154	922.159706522175	513.679411507663	547.114372752617	806.953762584611	730.044852909868	319.292753807842	691.370559055612	636.924724089716	254.951592387010	750.149980421954	543.168920757681	319.459534104322	736.489903225707	476.802253853435	328.205735088803	703.793189574189	411.819469928807	320.634227931467	604.603867592142	305.273877681071	269.955426310046	646.206686487333	190.861641284949	343.002327673276	910.444679047098	428.045447862026	556.134185354784	862.159609476495	311.043075384295	615.465679016018	937.604367630599	229.990017182670	564.278364338827	853.904411006107	41.989171865279	530.825499488957	1013.883042694320	117.566998575965	576.197010665304	936.589633658165	41.893999999971	606.684935959459	1138.373570282539	83.598862692522	603.750656111586	509.190373936319	38.703999962839	387.704866562440	582.446786742239	34.449315364559	306.685014738293	666.198770133022	95.144038172836	331.889472350939	794.167912003751	41.998932668609	303.492607620910	813.034666397919	1084.017178347713	104.630397703174	1045.150712496870	966.301413954057	102.026868013301	634.327145714281	1140.869632353788	717.930276591814	620.779828512152	882.515389007732	755.185975120268	
